# xmcd CD database file
#
# Track frame offsets:
#	150
#	12746
#	31781
#	45632
#	65018
#	81623
#	92954
#	119365
#	132051
#	147186
#	165945
#	178746
#
# Disc length: 2578 seconds
#
# Revision: 1
# Processed by: cddbd v1.5.2PL0 Copyright (c) Steve Scherf et al.
# Submitted via: CDex 1.51
#
DISCID=a40a100c
DTITLE=Uptown Blues Band - Do Mississipi ao Capibaribe
DYEAR=2008
DGENRE=Blues
TTITLE0=Frevo Blues
TTITLE1=Downtown Blues
TTITLE2=Chameleon
TTITLE3=Asa Branca
TTITLE4=Estação Werneck
TTITLE5=Praça do Trabalho
TTITLE6=Mercy Street
TTITLE7=Ximbau
TTITLE8=Akos
TTITLE9=Take a Walk
TTITLE10=Arrasta-pé
TTITLE11=Vassourinhas
EXTD=YEAR: 2008
EXTT0=
EXTT1=
EXTT2=
EXTT3=
EXTT4=
EXTT5=
EXTT6=
EXTT7=
EXTT8=
EXTT9=
EXTT10=
EXTT11=
PLAYORDER=
